<svg xmlns="http://www.w3.org/2000/svg" width="154.233" height="170.043" viewBox="0 0 154.233 170.043">
  <g id="Group_608" data-name="Group 608" transform="translate(244.674 -127.977)">
    <g id="Group_602" data-name="Group 602">
      <path id="Path_9950" data-name="Path 9950" d="M-243.626,276.742a2.1,2.1,0,0,0,.883.763,2.646,2.646,0,0,0,1.108.245,2.266,2.266,0,0,0,.65-.1,2,2,0,0,0,.6-.3,1.618,1.618,0,0,0,.444-.491,1.3,1.3,0,0,0,.173-.677,1.014,1.014,0,0,0-.345-.829,2.986,2.986,0,0,0-.856-.478q-.512-.192-1.115-.371a4.569,4.569,0,0,1-1.115-.5,2.732,2.732,0,0,1-.856-.856,2.668,2.668,0,0,1-.345-1.453,2.428,2.428,0,0,1,.18-.876,2.428,2.428,0,0,1,.563-.849,3.1,3.1,0,0,1,.989-.644,3.672,3.672,0,0,1,1.453-.259,5.089,5.089,0,0,1,1.473.212,2.533,2.533,0,0,1,1.235.863l-1.036.942a1.715,1.715,0,0,0-.676-.6,2.149,2.149,0,0,0-1-.226,2.4,2.4,0,0,0-.882.14,1.576,1.576,0,0,0-.564.358,1.268,1.268,0,0,0-.3.471,1.457,1.457,0,0,0-.086.465,1.183,1.183,0,0,0,.345.915,2.67,2.67,0,0,0,.856.518,10.155,10.155,0,0,0,1.115.358,4.767,4.767,0,0,1,1.114.445,2.606,2.606,0,0,1,.857.769,2.275,2.275,0,0,1,.344,1.334,2.813,2.813,0,0,1-.258,1.221,2.717,2.717,0,0,1-.7.916,3.073,3.073,0,0,1-1.035.57,4,4,0,0,1-1.274.2,4.637,4.637,0,0,1-1.712-.319,2.8,2.8,0,0,1-1.287-.982Z" fill="#233e81"/>
      <path id="Path_9951" data-name="Path 9951" d="M-237,275.561a3.214,3.214,0,0,1,.259-1.288,3.36,3.36,0,0,1,.71-1.048,3.321,3.321,0,0,1,1.062-.71,3.319,3.319,0,0,1,1.313-.259,3.332,3.332,0,0,1,1.315.259,3.327,3.327,0,0,1,1.061.71,3.36,3.36,0,0,1,.71,1.048,3.2,3.2,0,0,1,.259,1.288,3.244,3.244,0,0,1-.259,1.294,3.26,3.26,0,0,1-.71,1.048,3.376,3.376,0,0,1-1.061.7,3.332,3.332,0,0,1-1.315.259,3.319,3.319,0,0,1-1.313-.259,3.37,3.37,0,0,1-1.062-.7,3.26,3.26,0,0,1-.71-1.048A3.261,3.261,0,0,1-237,275.561Zm1.274,0a2.591,2.591,0,0,0,.146.882,1.982,1.982,0,0,0,.412.69,1.871,1.871,0,0,0,.65.451,2.148,2.148,0,0,0,.862.166,2.153,2.153,0,0,0,.863-.166,1.881,1.881,0,0,0,.65-.451,2,2,0,0,0,.412-.69,2.591,2.591,0,0,0,.146-.882,2.592,2.592,0,0,0-.146-.883,2,2,0,0,0-.412-.69,1.908,1.908,0,0,0-.65-.451,2.153,2.153,0,0,0-.863-.166,2.148,2.148,0,0,0-.862.166,1.9,1.9,0,0,0-.65.451,1.982,1.982,0,0,0-.412.69A2.592,2.592,0,0,0-235.73,275.561Z" fill="#233e81"/>
      <path id="Path_9952" data-name="Path 9952" d="M-228.683,268.673h1.194v6.476l2.708-2.72h1.658l-2.933,2.853,3.186,3.424h-1.7l-2.92-3.265v3.265h-1.194Z" fill="#233e81"/>
      <path id="Path_9953" data-name="Path 9953" d="M-221.637,273.185a3.334,3.334,0,0,1,1.168-.7,3.994,3.994,0,0,1,1.327-.232,3.637,3.637,0,0,1,1.188.173,2.313,2.313,0,0,1,.816.464,1.832,1.832,0,0,1,.471.67,2.089,2.089,0,0,1,.153.79v3.212c0,.221.005.424.013.61s.022.363.04.531h-1.062c-.026-.319-.039-.637-.039-.956h-.027a2.284,2.284,0,0,1-.942.863,2.972,2.972,0,0,1-1.261.252,2.878,2.878,0,0,1-.836-.12,2.03,2.03,0,0,1-.7-.358,1.7,1.7,0,0,1-.471-.591,1.827,1.827,0,0,1-.172-.815,1.808,1.808,0,0,1,.272-1.022,2.066,2.066,0,0,1,.743-.671,3.592,3.592,0,0,1,1.1-.371,7.66,7.66,0,0,1,1.346-.113h.876v-.265a1.31,1.31,0,0,0-.093-.478,1.315,1.315,0,0,0-.278-.432,1.329,1.329,0,0,0-.465-.3,1.766,1.766,0,0,0-.663-.112,2.458,2.458,0,0,0-.6.066,2.574,2.574,0,0,0-.471.166,2.061,2.061,0,0,0-.385.232c-.115.089-.226.172-.332.252Zm3.371,2.495a8.628,8.628,0,0,0-.869.046,3.367,3.367,0,0,0-.809.18,1.557,1.557,0,0,0-.6.371.839.839,0,0,0-.232.611.865.865,0,0,0,.365.782,1.781,1.781,0,0,0,.989.239,1.926,1.926,0,0,0,.836-.165,1.571,1.571,0,0,0,.557-.432,1.661,1.661,0,0,0,.3-.59,2.338,2.338,0,0,0,.093-.644v-.4Z" fill="#233e81"/>
      <path id="Path_9954" data-name="Path 9954" d="M-210.515,269.31h1.274v9.4h-1.274Z" fill="#233e81"/>
      <path id="Path_9955" data-name="Path 9955" d="M-207,272.415h1.194v.969h.026a1.767,1.767,0,0,1,.783-.816,2.592,2.592,0,0,1,1.287-.312,2.733,2.733,0,0,1,.87.139,1.958,1.958,0,0,1,.73.432,2.068,2.068,0,0,1,.5.75,2.86,2.86,0,0,1,.186,1.081v4.048h-1.194V274.99a2.115,2.115,0,0,0-.119-.75,1.368,1.368,0,0,0-.319-.5,1.2,1.2,0,0,0-.458-.279,1.673,1.673,0,0,0-.537-.086,1.939,1.939,0,0,0-.69.119,1.442,1.442,0,0,0-.558.378,1.789,1.789,0,0,0-.371.657,2.98,2.98,0,0,0-.133.943v3.238H-207Z" fill="#233e81"/>
      <path id="Path_9956" data-name="Path 9956" d="M-196.117,273.45h-1.712V276.3c0,.177,0,.351.014.524a1.344,1.344,0,0,0,.1.464.755.755,0,0,0,.266.332.9.9,0,0,0,.524.126,2.485,2.485,0,0,0,.438-.04,1.272,1.272,0,0,0,.411-.145v1.088a1.576,1.576,0,0,1-.551.165,4.133,4.133,0,0,1-.524.047,2.4,2.4,0,0,1-1.068-.192,1.318,1.318,0,0,1-.557-.5,1.6,1.6,0,0,1-.213-.684q-.033-.378-.033-.762V273.45h-1.38v-1.035h1.38V270.65h1.194v1.765h1.712Z" fill="#233e81"/>
      <path id="Path_9957" data-name="Path 9957" d="M-193.542,276a1.568,1.568,0,0,0,.179.75,1.861,1.861,0,0,0,.471.578,2.174,2.174,0,0,0,.677.371,2.409,2.409,0,0,0,.8.133,1.777,1.777,0,0,0,.969-.259,3.132,3.132,0,0,0,.756-.683l.9.69a3.323,3.323,0,0,1-2.787,1.287,3.462,3.462,0,0,1-1.347-.252,2.923,2.923,0,0,1-1.022-.7,3.1,3.1,0,0,1-.644-1.048,3.715,3.715,0,0,1-.225-1.307,3.456,3.456,0,0,1,.245-1.308,3.256,3.256,0,0,1,.677-1.048,3.082,3.082,0,0,1,1.029-.7,3.308,3.308,0,0,1,1.3-.252,3.113,3.113,0,0,1,1.413.292,2.8,2.8,0,0,1,.949.763,3.013,3.013,0,0,1,.538,1.062,4.445,4.445,0,0,1,.166,1.2V276Zm3.769-.955a2.534,2.534,0,0,0-.126-.73,1.613,1.613,0,0,0-.339-.577,1.549,1.549,0,0,0-.564-.385,2.06,2.06,0,0,0-.79-.139,1.932,1.932,0,0,0-.8.165,1.976,1.976,0,0,0-.617.432,2,2,0,0,0-.391.59,1.622,1.622,0,0,0-.139.644Z" fill="#233e81"/>
      <path id="Path_9958" data-name="Path 9958" d="M-186.933,272.415h1.194v.969h.027a1.7,1.7,0,0,1,.318-.458,2.163,2.163,0,0,1,.445-.352,2.359,2.359,0,0,1,.537-.232,2.07,2.07,0,0,1,.584-.086,1.672,1.672,0,0,1,.531.08l-.053,1.287c-.1-.027-.195-.049-.292-.066a1.61,1.61,0,0,0-.292-.027,1.757,1.757,0,0,0-1.34.491,2.155,2.155,0,0,0-.465,1.526v3.159h-1.194Z" fill="#233e81"/>
      <path id="Path_9959" data-name="Path 9959" d="M-181.89,272.415h1.194v.969h.026a1.767,1.767,0,0,1,.783-.816,2.594,2.594,0,0,1,1.288-.312,2.731,2.731,0,0,1,.869.139,1.958,1.958,0,0,1,.73.432,2.068,2.068,0,0,1,.5.75,2.86,2.86,0,0,1,.186,1.081v4.048h-1.194V274.99a2.115,2.115,0,0,0-.119-.75,1.368,1.368,0,0,0-.319-.5,1.2,1.2,0,0,0-.458-.279,1.673,1.673,0,0,0-.537-.086,1.939,1.939,0,0,0-.69.119,1.45,1.45,0,0,0-.558.378,1.789,1.789,0,0,0-.371.657,2.98,2.98,0,0,0-.133.943v3.238h-1.194Z" fill="#233e81"/>
      <path id="Path_9960" data-name="Path 9960" d="M-174.353,273.185a3.334,3.334,0,0,1,1.168-.7,4,4,0,0,1,1.328-.232,3.635,3.635,0,0,1,1.187.173,2.313,2.313,0,0,1,.816.464,1.832,1.832,0,0,1,.471.67,2.089,2.089,0,0,1,.153.79v3.212c0,.221,0,.424.013.61s.022.363.04.531h-1.062c-.026-.319-.039-.637-.039-.956h-.027a2.284,2.284,0,0,1-.942.863,2.972,2.972,0,0,1-1.261.252,2.878,2.878,0,0,1-.836-.12,2.03,2.03,0,0,1-.7-.358,1.716,1.716,0,0,1-.471-.591,1.827,1.827,0,0,1-.172-.815,1.816,1.816,0,0,1,.272-1.022,2.066,2.066,0,0,1,.743-.671,3.592,3.592,0,0,1,1.1-.371,7.66,7.66,0,0,1,1.346-.113h.876v-.265a1.31,1.31,0,0,0-.093-.478,1.315,1.315,0,0,0-.278-.432,1.329,1.329,0,0,0-.465-.3,1.766,1.766,0,0,0-.663-.112,2.458,2.458,0,0,0-.6.066,2.574,2.574,0,0,0-.471.166,2.062,2.062,0,0,0-.385.232c-.115.089-.225.172-.332.252Zm3.371,2.495a8.628,8.628,0,0,0-.869.046,3.367,3.367,0,0,0-.809.18,1.557,1.557,0,0,0-.6.371.839.839,0,0,0-.232.611.865.865,0,0,0,.365.782,1.781,1.781,0,0,0,.989.239,1.926,1.926,0,0,0,.836-.165,1.571,1.571,0,0,0,.557-.432,1.661,1.661,0,0,0,.3-.59,2.338,2.338,0,0,0,.093-.644v-.4Z" fill="#233e81"/>
      <path id="Path_9961" data-name="Path 9961" d="M-163.988,273.45H-165.7V276.3c0,.177,0,.351.014.524a1.344,1.344,0,0,0,.1.464.755.755,0,0,0,.266.332.9.9,0,0,0,.524.126,2.485,2.485,0,0,0,.438-.04,1.272,1.272,0,0,0,.411-.145v1.088a1.576,1.576,0,0,1-.551.165,4.134,4.134,0,0,1-.524.047,2.4,2.4,0,0,1-1.068-.192,1.327,1.327,0,0,1-.558-.5,1.614,1.614,0,0,1-.212-.684q-.033-.378-.033-.762V273.45h-1.38v-1.035h1.38V270.65h1.194v1.765h1.712Z" fill="#233e81"/>
      <path id="Path_9962" data-name="Path 9962" d="M-162.5,270.159a.845.845,0,0,1,.259-.617.841.841,0,0,1,.617-.259.84.84,0,0,1,.617.259.841.841,0,0,1,.259.617.84.84,0,0,1-.259.617.84.84,0,0,1-.617.259.841.841,0,0,1-.617-.259A.843.843,0,0,1-162.5,270.159Zm.279,2.256h1.2v6.291h-1.2Z" fill="#233e81"/>
      <path id="Path_9963" data-name="Path 9963" d="M-159.3,275.561a3.214,3.214,0,0,1,.258-1.288,3.378,3.378,0,0,1,.71-1.048,3.321,3.321,0,0,1,1.062-.71,3.323,3.323,0,0,1,1.314-.259,3.323,3.323,0,0,1,1.314.259,3.305,3.305,0,0,1,1.061.71,3.344,3.344,0,0,1,.71,1.048,3.2,3.2,0,0,1,.259,1.288,3.244,3.244,0,0,1-.259,1.294,3.244,3.244,0,0,1-.71,1.048,3.354,3.354,0,0,1-1.061.7,3.323,3.323,0,0,1-1.314.259,3.323,3.323,0,0,1-1.314-.259,3.37,3.37,0,0,1-1.062-.7,3.276,3.276,0,0,1-.71-1.048A3.261,3.261,0,0,1-159.3,275.561Zm1.274,0a2.566,2.566,0,0,0,.146.882,1.98,1.98,0,0,0,.411.69,1.89,1.89,0,0,0,.65.451,2.153,2.153,0,0,0,.863.166,2.157,2.157,0,0,0,.863-.166,1.9,1.9,0,0,0,.65-.451,2,2,0,0,0,.411-.69,2.591,2.591,0,0,0,.146-.882,2.592,2.592,0,0,0-.146-.883,2,2,0,0,0-.411-.69,1.928,1.928,0,0,0-.65-.451,2.157,2.157,0,0,0-.863-.166,2.153,2.153,0,0,0-.863.166,1.918,1.918,0,0,0-.65.451,1.98,1.98,0,0,0-.411.69A2.568,2.568,0,0,0-158.029,275.561Z" fill="#233e81"/>
      <path id="Path_9964" data-name="Path 9964" d="M-150.983,272.415h1.2v.969h.026a1.767,1.767,0,0,1,.783-.816,2.593,2.593,0,0,1,1.287-.312,2.733,2.733,0,0,1,.87.139,1.954,1.954,0,0,1,.729.432,2.069,2.069,0,0,1,.5.75,2.86,2.86,0,0,1,.186,1.081v4.048H-146.6V274.99a2.092,2.092,0,0,0-.12-.75,1.379,1.379,0,0,0-.318-.5,1.213,1.213,0,0,0-.458-.279,1.679,1.679,0,0,0-.538-.086,1.947,1.947,0,0,0-.69.119,1.447,1.447,0,0,0-.557.378,1.8,1.8,0,0,0-.372.657,3.01,3.01,0,0,0-.132.943v3.238h-1.2Z" fill="#233e81"/>
      <path id="Path_9965" data-name="Path 9965" d="M-143.445,273.185a3.317,3.317,0,0,1,1.168-.7,3.985,3.985,0,0,1,1.327-.232,3.63,3.63,0,0,1,1.187.173,2.327,2.327,0,0,1,.817.464,1.844,1.844,0,0,1,.471.67,2.108,2.108,0,0,1,.153.79v3.212q0,.332.013.61c.008.186.022.363.039.531h-1.061c-.027-.319-.04-.637-.04-.956h-.026a2.292,2.292,0,0,1-.943.863,2.969,2.969,0,0,1-1.261.252,2.888,2.888,0,0,1-.836-.12,2.016,2.016,0,0,1-.7-.358,1.693,1.693,0,0,1-.471-.591,1.814,1.814,0,0,1-.173-.815,1.816,1.816,0,0,1,.272-1.022,2.074,2.074,0,0,1,.743-.671,3.592,3.592,0,0,1,1.1-.371,7.663,7.663,0,0,1,1.347-.113h.876v-.265a1.31,1.31,0,0,0-.093-.478,1.3,1.3,0,0,0-.279-.432,1.334,1.334,0,0,0-.464-.3,1.771,1.771,0,0,0-.664-.112,2.464,2.464,0,0,0-.6.066,2.628,2.628,0,0,0-.471.166,2.061,2.061,0,0,0-.385.232c-.115.089-.225.172-.331.252Zm3.371,2.495a8.613,8.613,0,0,0-.869.046,3.365,3.365,0,0,0-.81.18,1.553,1.553,0,0,0-.6.371.839.839,0,0,0-.232.611.864.864,0,0,0,.364.782,1.783,1.783,0,0,0,.989.239,1.926,1.926,0,0,0,.836-.165,1.583,1.583,0,0,0,.558-.432,1.677,1.677,0,0,0,.305-.59,2.338,2.338,0,0,0,.093-.644v-.4Z" fill="#233e81"/>
      <path id="Path_9966" data-name="Path 9966" d="M-136.358,268.673h1.194v10.033h-1.194Z" fill="#233e81"/>
      <path id="Path_9967" data-name="Path 9967" d="M-128.728,276.742a2.105,2.105,0,0,0,.883.763,2.646,2.646,0,0,0,1.108.245,2.266,2.266,0,0,0,.65-.1,1.983,1.983,0,0,0,.6-.3,1.618,1.618,0,0,0,.444-.491,1.3,1.3,0,0,0,.173-.677,1.014,1.014,0,0,0-.345-.829,2.972,2.972,0,0,0-.856-.478q-.511-.192-1.115-.371a4.562,4.562,0,0,1-1.114-.5,2.722,2.722,0,0,1-.856-.856,2.668,2.668,0,0,1-.345-1.453,2.425,2.425,0,0,1,.179-.876,2.417,2.417,0,0,1,.564-.849,3.088,3.088,0,0,1,.989-.644,3.666,3.666,0,0,1,1.453-.259,5.089,5.089,0,0,1,1.473.212,2.535,2.535,0,0,1,1.234.863l-1.035.942a1.725,1.725,0,0,0-.677-.6,2.148,2.148,0,0,0-.995-.226,2.411,2.411,0,0,0-.883.14,1.585,1.585,0,0,0-.564.358,1.268,1.268,0,0,0-.3.471,1.457,1.457,0,0,0-.086.465,1.182,1.182,0,0,0,.345.915,2.681,2.681,0,0,0,.856.518,10.225,10.225,0,0,0,1.115.358,4.793,4.793,0,0,1,1.115.445,2.612,2.612,0,0,1,.856.769,2.267,2.267,0,0,1,.345,1.334,2.8,2.8,0,0,1-.259,1.221,2.7,2.7,0,0,1-.7.916,3.073,3.073,0,0,1-1.035.57,4,4,0,0,1-1.274.2,4.641,4.641,0,0,1-1.712-.319,2.8,2.8,0,0,1-1.287-.982Z" fill="#233e81"/>
      <path id="Path_9968" data-name="Path 9968" d="M-117.3,274.087a2.517,2.517,0,0,0-.7-.524,1.966,1.966,0,0,0-.87-.179,1.931,1.931,0,0,0-.856.179,1.744,1.744,0,0,0-.61.491,2.2,2.2,0,0,0-.372.717,2.821,2.821,0,0,0-.126.843,2.359,2.359,0,0,0,.146.829,2.106,2.106,0,0,0,.411.684,1.893,1.893,0,0,0,.638.457,2.019,2.019,0,0,0,.836.166,1.9,1.9,0,0,0,.862-.179,2.209,2.209,0,0,0,.664-.524l.849.849a2.672,2.672,0,0,1-1.081.743,3.77,3.77,0,0,1-1.308.226,3.606,3.606,0,0,1-1.334-.239,3.086,3.086,0,0,1-1.041-.67,2.958,2.958,0,0,1-.677-1.035,3.6,3.6,0,0,1-.239-1.334,3.653,3.653,0,0,1,.239-1.34,3.073,3.073,0,0,1,.67-1.049,3.053,3.053,0,0,1,1.035-.683,3.543,3.543,0,0,1,1.347-.246,3.606,3.606,0,0,1,1.321.246,2.915,2.915,0,0,1,1.1.75Z" fill="#233e81"/>
      <path id="Path_9969" data-name="Path 9969" d="M-115.271,268.673h1.194v4.711h.027a1.76,1.76,0,0,1,.782-.816,2.594,2.594,0,0,1,1.288-.312,2.727,2.727,0,0,1,.869.139,1.958,1.958,0,0,1,.73.432,2.069,2.069,0,0,1,.5.75,2.86,2.86,0,0,1,.186,1.081v4.048h-1.195V274.99a2.115,2.115,0,0,0-.119-.75,1.368,1.368,0,0,0-.319-.5,1.2,1.2,0,0,0-.458-.279,1.668,1.668,0,0,0-.537-.086,1.939,1.939,0,0,0-.69.119,1.457,1.457,0,0,0-.558.378,1.789,1.789,0,0,0-.371.657,2.98,2.98,0,0,0-.133.943v3.238h-1.194Z" fill="#233e81"/>
      <path id="Path_9970" data-name="Path 9970" d="M-108.065,275.561a3.2,3.2,0,0,1,.259-1.288,3.343,3.343,0,0,1,.71-1.048,3.305,3.305,0,0,1,1.061-.71,3.323,3.323,0,0,1,1.314-.259,3.323,3.323,0,0,1,1.314.259,3.321,3.321,0,0,1,1.062.71,3.377,3.377,0,0,1,.71,1.048,3.214,3.214,0,0,1,.259,1.288,3.261,3.261,0,0,1-.259,1.294,3.276,3.276,0,0,1-.71,1.048,3.369,3.369,0,0,1-1.062.7,3.323,3.323,0,0,1-1.314.259,3.323,3.323,0,0,1-1.314-.259,3.354,3.354,0,0,1-1.061-.7,3.244,3.244,0,0,1-.71-1.048A3.244,3.244,0,0,1-108.065,275.561Zm1.274,0a2.567,2.567,0,0,0,.146.882,1.98,1.98,0,0,0,.411.69,1.885,1.885,0,0,0,.651.451,2.148,2.148,0,0,0,.862.166,2.153,2.153,0,0,0,.863-.166,1.89,1.89,0,0,0,.65-.451,2,2,0,0,0,.412-.69,2.591,2.591,0,0,0,.145-.882,2.592,2.592,0,0,0-.145-.883,2,2,0,0,0-.412-.69,1.918,1.918,0,0,0-.65-.451,2.153,2.153,0,0,0-.863-.166,2.148,2.148,0,0,0-.862.166,1.912,1.912,0,0,0-.651.451,1.98,1.98,0,0,0-.411.69A2.568,2.568,0,0,0-106.791,275.561Z" fill="#233e81"/>
      <path id="Path_9971" data-name="Path 9971" d="M-100.049,275.561a3.214,3.214,0,0,1,.258-1.288,3.36,3.36,0,0,1,.71-1.048,3.321,3.321,0,0,1,1.062-.71,3.323,3.323,0,0,1,1.314-.259,3.323,3.323,0,0,1,1.314.259,3.327,3.327,0,0,1,1.061.71,3.36,3.36,0,0,1,.71,1.048,3.2,3.2,0,0,1,.259,1.288,3.244,3.244,0,0,1-.259,1.294,3.26,3.26,0,0,1-.71,1.048,3.376,3.376,0,0,1-1.061.7,3.323,3.323,0,0,1-1.314.259,3.323,3.323,0,0,1-1.314-.259,3.369,3.369,0,0,1-1.062-.7,3.26,3.26,0,0,1-.71-1.048A3.261,3.261,0,0,1-100.049,275.561Zm1.274,0a2.567,2.567,0,0,0,.146.882,1.965,1.965,0,0,0,.411.69,1.881,1.881,0,0,0,.65.451,2.153,2.153,0,0,0,.863.166,2.148,2.148,0,0,0,.862-.166,1.894,1.894,0,0,0,.651-.451,2.01,2.01,0,0,0,.411-.69,2.591,2.591,0,0,0,.146-.882,2.592,2.592,0,0,0-.146-.883,2.01,2.01,0,0,0-.411-.69,1.922,1.922,0,0,0-.651-.451,2.148,2.148,0,0,0-.862-.166,2.153,2.153,0,0,0-.863.166,1.908,1.908,0,0,0-.65.451,1.965,1.965,0,0,0-.411.69A2.568,2.568,0,0,0-98.775,275.561Z" fill="#233e81"/>
      <path id="Path_9972" data-name="Path 9972" d="M-91.636,268.673h1.195v10.033h-1.195Z" fill="#233e81"/>
      <path id="Path_9973" data-name="Path 9973" d="M-192.42,285.439h1.9l2.986,7.113h.053l2.96-7.113h1.9v9.4H-183.9v-7.724h-.026l-3.172,7.724h-.849l-3.172-7.724h-.027v7.724h-1.273Z" fill="#233e81"/>
      <path id="Path_9974" data-name="Path 9974" d="M-180.45,289.314a3.329,3.329,0,0,1,1.168-.7,3.987,3.987,0,0,1,1.327-.233,3.629,3.629,0,0,1,1.187.173,2.326,2.326,0,0,1,.817.464,1.847,1.847,0,0,1,.471.671,2.1,2.1,0,0,1,.152.789v3.212c0,.221.005.424.013.61s.023.363.04.531h-1.061c-.027-.318-.04-.637-.04-.955h-.027a2.281,2.281,0,0,1-.942.862,2.972,2.972,0,0,1-1.261.252,2.918,2.918,0,0,1-.836-.119,2.051,2.051,0,0,1-.7-.358,1.7,1.7,0,0,1-.471-.591,1.815,1.815,0,0,1-.173-.816,1.818,1.818,0,0,1,.272-1.022,2.054,2.054,0,0,1,.743-.67,3.592,3.592,0,0,1,1.1-.372,7.663,7.663,0,0,1,1.347-.113h.876v-.265a1.314,1.314,0,0,0-.093-.478,1.288,1.288,0,0,0-.279-.431,1.335,1.335,0,0,0-.464-.3,1.77,1.77,0,0,0-.664-.113,2.464,2.464,0,0,0-.6.066,2.761,2.761,0,0,0-.471.166,2.117,2.117,0,0,0-.385.232c-.115.089-.225.173-.332.253Zm3.371,2.495a8.375,8.375,0,0,0-.87.047,3.418,3.418,0,0,0-.809.179,1.558,1.558,0,0,0-.6.372.84.84,0,0,0-.231.61.865.865,0,0,0,.364.783,1.791,1.791,0,0,0,.989.239,1.911,1.911,0,0,0,.836-.166,1.581,1.581,0,0,0,.558-.431,1.682,1.682,0,0,0,.3-.591,2.333,2.333,0,0,0,.093-.644v-.4Z" fill="#233e81"/>
      <path id="Path_9975" data-name="Path 9975" d="M-173.364,284.8h1.195v10.033h-1.195Z" fill="#233e81"/>
      <path id="Path_9976" data-name="Path 9976" d="M-170.113,289.314a3.347,3.347,0,0,1,1.168-.7,4,4,0,0,1,1.327-.233,3.64,3.64,0,0,1,1.188.173,2.313,2.313,0,0,1,.816.464,1.835,1.835,0,0,1,.471.671,2.083,2.083,0,0,1,.153.789v3.212q0,.332.013.61c.009.186.022.363.04.531H-166c-.026-.318-.04-.637-.04-.955h-.026a2.287,2.287,0,0,1-.942.862,2.972,2.972,0,0,1-1.261.252,2.913,2.913,0,0,1-.836-.119,2.056,2.056,0,0,1-.7-.358,1.714,1.714,0,0,1-.471-.591,1.829,1.829,0,0,1-.172-.816,1.81,1.81,0,0,1,.272-1.022,2.054,2.054,0,0,1,.743-.67,3.6,3.6,0,0,1,1.1-.372,7.672,7.672,0,0,1,1.347-.113h.876v-.265a1.314,1.314,0,0,0-.093-.478,1.3,1.3,0,0,0-.278-.431,1.33,1.33,0,0,0-.465-.3,1.769,1.769,0,0,0-.663-.113,2.452,2.452,0,0,0-.6.066,2.731,2.731,0,0,0-.471.166,2.117,2.117,0,0,0-.385.232c-.115.089-.226.173-.332.253Zm3.371,2.495a8.356,8.356,0,0,0-.869.047,3.438,3.438,0,0,0-.81.179,1.562,1.562,0,0,0-.6.372.837.837,0,0,0-.232.61.863.863,0,0,0,.365.783,1.789,1.789,0,0,0,.989.239,1.911,1.911,0,0,0,.836-.166,1.577,1.577,0,0,0,.557-.431,1.665,1.665,0,0,0,.305-.591,2.333,2.333,0,0,0,.093-.644v-.4Z" fill="#233e81"/>
      <path id="Path_9977" data-name="Path 9977" d="M-163.862,288.545h1.38l1.863,4.91h.026l1.787-4.91h1.274l-2.986,7.644q-.159.411-.33.75a2.265,2.265,0,0,1-.41.577,1.643,1.643,0,0,1-.575.371,2.248,2.248,0,0,1-.826.133,4.426,4.426,0,0,1-.535-.033,1.955,1.955,0,0,1-.522-.139l.145-1.088a1.869,1.869,0,0,0,.712.145,1.306,1.306,0,0,0,.468-.073.905.905,0,0,0,.33-.212,1.257,1.257,0,0,0,.231-.325c.061-.124.123-.266.184-.425l.387-.995Z" fill="#233e81"/>
      <path id="Path_9978" data-name="Path 9978" d="M-153.007,290.124a1.831,1.831,0,0,0-.524-.445,1.514,1.514,0,0,0-.763-.179,1.457,1.457,0,0,0-.736.179.572.572,0,0,0-.312.524.6.6,0,0,0,.179.452,1.4,1.4,0,0,0,.424.278,2.465,2.465,0,0,0,.525.16c.185.035.345.066.478.093a5.663,5.663,0,0,1,.723.225,2.035,2.035,0,0,1,.584.345,1.508,1.508,0,0,1,.385.518,1.8,1.8,0,0,1,.139.743,1.746,1.746,0,0,1-.225.909,1.916,1.916,0,0,1-.584.617,2.475,2.475,0,0,1-.817.345,4.057,4.057,0,0,1-.922.106,3.654,3.654,0,0,1-1.374-.238,2.479,2.479,0,0,1-1.054-.876l.9-.744a3.653,3.653,0,0,0,.65.518,1.608,1.608,0,0,0,.876.226,2.335,2.335,0,0,0,.458-.047,1.426,1.426,0,0,0,.411-.146.886.886,0,0,0,.292-.252.576.576,0,0,0,.113-.352.606.606,0,0,0-.166-.438,1.229,1.229,0,0,0-.4-.272,2.97,2.97,0,0,0-.491-.159c-.173-.04-.325-.073-.458-.1a7.479,7.479,0,0,1-.73-.212,2.219,2.219,0,0,1-.61-.318,1.476,1.476,0,0,1-.425-.5,1.628,1.628,0,0,1-.159-.757,1.716,1.716,0,0,1,.205-.856,1.837,1.837,0,0,1,.545-.6,2.47,2.47,0,0,1,.769-.358,3.231,3.231,0,0,1,.87-.12,3.2,3.2,0,0,1,1.22.239,1.928,1.928,0,0,1,.929.8Z" fill="#233e81"/>
      <path id="Path_9979" data-name="Path 9979" d="M-150.512,286.289a.843.843,0,0,1,.259-.617.841.841,0,0,1,.617-.259.84.84,0,0,1,.617.259.84.84,0,0,1,.259.617.843.843,0,0,1-.259.617.843.843,0,0,1-.617.259.845.845,0,0,1-.617-.259A.847.847,0,0,1-150.512,286.289Zm.279,2.256h1.2v6.29h-1.2Z" fill="#233e81"/>
      <path id="Path_9980" data-name="Path 9980" d="M-146.982,289.314a3.347,3.347,0,0,1,1.168-.7,3.991,3.991,0,0,1,1.327-.233,3.64,3.64,0,0,1,1.188.173,2.313,2.313,0,0,1,.816.464,1.847,1.847,0,0,1,.471.671,2.084,2.084,0,0,1,.153.789v3.212q0,.332.013.61c.009.186.022.363.04.531h-1.062c-.026-.318-.04-.637-.04-.955h-.026a2.287,2.287,0,0,1-.942.862,2.972,2.972,0,0,1-1.261.252,2.913,2.913,0,0,1-.836-.119,2.046,2.046,0,0,1-.7-.358,1.714,1.714,0,0,1-.471-.591,1.829,1.829,0,0,1-.172-.816,1.818,1.818,0,0,1,.271-1.022,2.066,2.066,0,0,1,.744-.67,3.6,3.6,0,0,1,1.1-.372,7.663,7.663,0,0,1,1.347-.113h.876v-.265a1.314,1.314,0,0,0-.093-.478,1.288,1.288,0,0,0-.279-.431,1.325,1.325,0,0,0-.464-.3,1.769,1.769,0,0,0-.663-.113,2.452,2.452,0,0,0-.6.066,2.731,2.731,0,0,0-.471.166,2.126,2.126,0,0,0-.386.232c-.114.089-.225.173-.331.253Zm3.371,2.495a8.356,8.356,0,0,0-.869.047,3.427,3.427,0,0,0-.81.179,1.562,1.562,0,0,0-.6.372.837.837,0,0,0-.232.61.863.863,0,0,0,.365.783,1.787,1.787,0,0,0,.988.239,1.908,1.908,0,0,0,.836-.166,1.581,1.581,0,0,0,.558-.431,1.682,1.682,0,0,0,.3-.591,2.333,2.333,0,0,0,.093-.644v-.4Z" fill="#233e81"/>
    </g>
    <g id="Group_607" data-name="Group 607">
      <g id="Group_603" data-name="Group 603">
        <path id="Path_9981" data-name="Path 9981" d="M-186.955,248.094a2.815,2.815,0,0,0-1.3-1.031,4.54,4.54,0,0,0-1.71-.327,4.324,4.324,0,0,0-1.031.121,2.8,2.8,0,0,0-.9.388,2.038,2.038,0,0,0-.643.691,2,2,0,0,0-.242,1.007,1.576,1.576,0,0,0,.606,1.335,5.959,5.959,0,0,0,1.5.8q.9.34,1.965.656a7.99,7.99,0,0,1,1.966.873,4.867,4.867,0,0,1,1.5,1.48,4.4,4.4,0,0,1,.606,2.45,5.4,5.4,0,0,1-.509,2.414,4.923,4.923,0,0,1-1.371,1.711,5.907,5.907,0,0,1-2,1.018,8.348,8.348,0,0,1-2.4.34,9.026,9.026,0,0,1-3.081-.533,5.941,5.941,0,0,1-2.548-1.8l2.3-2.232a3.849,3.849,0,0,0,1.468,1.322,4.112,4.112,0,0,0,1.928.473,4.047,4.047,0,0,0,1.068-.145,3.3,3.3,0,0,0,.97-.437,2.274,2.274,0,0,0,.7-.74,1.978,1.978,0,0,0,.267-1.031,1.794,1.794,0,0,0-.607-1.455,5.363,5.363,0,0,0-1.5-.862q-.9-.351-1.965-.667a8.247,8.247,0,0,1-1.965-.861,4.766,4.766,0,0,1-1.5-1.456,4.331,4.331,0,0,1-.607-2.438,4.626,4.626,0,0,1,.546-2.305A4.988,4.988,0,0,1-194,245.244a6.236,6.236,0,0,1,2.026-.959,8.708,8.708,0,0,1,2.329-.315,8.5,8.5,0,0,1,2.633.412,6.1,6.1,0,0,1,2.292,1.359Z" fill="#233e81"/>
        <path id="Path_9982" data-name="Path 9982" d="M-180.308,244.406h3.057v17.178h-3.057Z" fill="#233e81"/>
        <path id="Path_9983" data-name="Path 9983" d="M-163.858,248.094a2.82,2.82,0,0,0-1.3-1.031,4.54,4.54,0,0,0-1.71-.327,4.333,4.333,0,0,0-1.032.121,2.794,2.794,0,0,0-.9.388,2.029,2.029,0,0,0-.643.691,2,2,0,0,0-.243,1.007,1.574,1.574,0,0,0,.607,1.335,5.941,5.941,0,0,0,1.5.8q.9.34,1.965.656a7.966,7.966,0,0,1,1.965.873,4.859,4.859,0,0,1,1.505,1.48,4.4,4.4,0,0,1,.606,2.45,5.382,5.382,0,0,1-.51,2.414,4.909,4.909,0,0,1-1.37,1.711,5.926,5.926,0,0,1-2,1.018,8.35,8.35,0,0,1-2.4.34,9.034,9.034,0,0,1-3.081-.533,5.932,5.932,0,0,1-2.547-1.8l2.3-2.232a3.856,3.856,0,0,0,1.468,1.322,4.119,4.119,0,0,0,1.929.473,4.034,4.034,0,0,0,1.067-.145,3.3,3.3,0,0,0,.971-.437,2.284,2.284,0,0,0,.7-.74,1.978,1.978,0,0,0,.267-1.031,1.794,1.794,0,0,0-.607-1.455,5.363,5.363,0,0,0-1.5-.862q-.9-.351-1.965-.667a8.271,8.271,0,0,1-1.966-.861,4.776,4.776,0,0,1-1.5-1.456,4.339,4.339,0,0,1-.606-2.438,4.626,4.626,0,0,1,.546-2.305,4.977,4.977,0,0,1,1.431-1.613,6.226,6.226,0,0,1,2.026-.959,8.7,8.7,0,0,1,2.329-.315,8.486,8.486,0,0,1,2.632.412,6.1,6.1,0,0,1,2.293,1.359Z" fill="#233e81"/>
        <path id="Path_9984" data-name="Path 9984" d="M-157.065,244.406h4.658l4.585,12.034,4.634-12.034h4.61v17.178h-2.912V247.318h-.048l-5.216,14.266h-2.135l-5.216-14.266h-.049v14.266h-2.911Z" fill="#233e81"/>
      </g>
      <g id="Group_606" data-name="Group 606">
        <g id="Group_604" data-name="Group 604">
          <path id="Path_9985" data-name="Path 9985" d="M-170.165,206.8s-4.994-18.871-32.111-21.8h21.83s-1.13-11.349-10.565-24.612C-191.011,160.384-172.4,171.669-170.165,206.8Z" fill="#00a76c"/>
          <path id="Path_9986" data-name="Path 9986" d="M-164.953,206.8s5-18.871,32.113-21.8h-21.832s1.132-11.349,10.569-24.612C-144.1,160.384-162.721,171.669-164.953,206.8Z" fill="#00a76c"/>
          <path id="Path_9987" data-name="Path 9987" d="M-167.247,160.384v9.883h-.622v-9.883l-5.291,10.2,3.57,36.211h4.064l3.57-36.211Z" fill="#00a76c"/>
        </g>
        <g id="Group_605" data-name="Group 605">
          <path id="Path_9988" data-name="Path 9988" d="M-170.147,127.977l-12.377,7.077s29.592-3.5,47.26,28.8C-135.264,163.854-134.135,131.523-170.147,127.977Z" fill="#f6ea12"/>
          <path id="Path_9989" data-name="Path 9989" d="M-214.561,156.608l-.059,14.258s11.768-27.375,48.571-26.529C-166.049,144.337-193.484,127.194-214.561,156.608Z" fill="#233e81"/>
          <path id="Path_9990" data-name="Path 9990" d="M-211.972,209.388l12.317,7.18s-17.823-23.879,1.312-55.328C-198.343,161.24-226.907,176.428-211.972,209.388Z" fill="#f6ea12"/>
          <path id="Path_9991" data-name="Path 9991" d="M-164.969,233.536l12.377-7.077s-29.592,3.5-47.26-28.8C-199.852,197.659-200.981,229.99-164.969,233.536Z" fill="#ec2024"/>
          <path id="Path_9992" data-name="Path 9992" d="M-120.555,204.9l.06-14.258s-11.769,27.375-48.572,26.529C-169.067,217.176-141.632,234.319-120.555,204.9Z" fill="#233e81"/>
          <path id="Path_9993" data-name="Path 9993" d="M-123.143,152.125l-12.318-7.18s17.823,23.879-1.312,55.328C-136.773,200.273-108.209,185.085-123.143,152.125Z" fill="#ec2024"/>
        </g>
      </g>
    </g>
  </g>
</svg>
